<svg width="30" height="29" viewBox="0 0 30 29" fill="none" xmlns="http://www.w3.org/2000/svg">
<mask id="mask0_101_46" style="mask-type:alpha" maskUnits="userSpaceOnUse" x="0" y="0" width="30" height="29">
<rect x="0.208496" width="29" height="29" fill="#D9D9D9"/>
</mask>
<g mask="url(#mask0_101_46)">
<path d="M13.5 20.5417H15.9167V15.7084H20.75V13.2917H15.9167V8.45841H13.5V13.2917H8.66667V15.7084H13.5V20.5417ZM14.7083 26.5834C13.0368 26.5834 11.466 26.2662 9.99583 25.6318C8.52569 24.9975 7.24687 24.1365 6.15937 23.049C5.07187 21.9615 4.21094 20.6827 3.57656 19.2126C2.94219 17.7424 2.625 16.1716 2.625 14.5001C2.625 12.8286 2.94219 11.2577 3.57656 9.78758C4.21094 8.31744 5.07187 7.03862 6.15937 5.95112C7.24687 4.86362 8.52569 4.00269 9.99583 3.36831C11.466 2.73394 13.0368 2.41675 14.7083 2.41675C16.3799 2.41675 17.9507 2.73394 19.4208 3.36831C20.891 4.00269 22.1698 4.86362 23.2573 5.95112C24.3448 7.03862 25.2057 8.31744 25.8401 9.78758C26.4745 11.2577 26.7917 12.8286 26.7917 14.5001C26.7917 16.1716 26.4745 17.7424 25.8401 19.2126C25.2057 20.6827 24.3448 21.9615 23.2573 23.049C22.1698 24.1365 20.891 24.9975 19.4208 25.6318C17.9507 26.2662 16.3799 26.5834 14.7083 26.5834ZM14.7083 24.1667C17.4069 24.1667 19.6927 23.2303 21.5656 21.3574C23.4385 19.4845 24.375 17.1987 24.375 14.5001C24.375 11.8015 23.4385 9.51571 21.5656 7.64279C19.6927 5.76987 17.4069 4.83341 14.7083 4.83341C12.0097 4.83341 9.72396 5.76987 7.85104 7.64279C5.97813 9.51571 5.04167 11.8015 5.04167 14.5001C5.04167 17.1987 5.97813 19.4845 7.85104 21.3574C9.72396 23.2303 12.0097 24.1667 14.7083 24.1667Z" fill="white"/>
</g>
</svg>
