<svg width="33" height="34" viewBox="0 0 33 34" fill="none" xmlns="http://www.w3.org/2000/svg">
<mask id="mask0_78_986" style="mask-type:alpha" maskUnits="userSpaceOnUse" x="0" y="0" width="33" height="34">
<rect y="0.113037" width="33" height="33" fill="#D9D9D9"/>
</mask>
<g mask="url(#mask0_78_986)">
<path d="M15.125 23.488H17.875V17.988H23.375V15.238H17.875V9.73804H15.125V15.238H9.625V17.988H15.125V23.488ZM16.5 30.363C14.5979 30.363 12.8104 30.0021 11.1375 29.2802C9.46458 28.5583 8.00938 27.5787 6.77187 26.3412C5.53437 25.1037 4.55469 23.6485 3.83281 21.9755C3.11094 20.3026 2.75 18.5151 2.75 16.613C2.75 14.711 3.11094 12.9235 3.83281 11.2505C4.55469 9.57762 5.53437 8.12241 6.77187 6.88491C8.00938 5.64741 9.46458 4.66772 11.1375 3.94585C12.8104 3.22397 14.5979 2.86304 16.5 2.86304C18.4021 2.86304 20.1896 3.22397 21.8625 3.94585C23.5354 4.66772 24.9906 5.64741 26.2281 6.88491C27.4656 8.12241 28.4453 9.57762 29.1672 11.2505C29.8891 12.9235 30.25 14.711 30.25 16.613C30.25 18.5151 29.8891 20.3026 29.1672 21.9755C28.4453 23.6485 27.4656 25.1037 26.2281 26.3412C24.9906 27.5787 23.5354 28.5583 21.8625 29.2802C20.1896 30.0021 18.4021 30.363 16.5 30.363ZM16.5 27.613C19.5708 27.613 22.1719 26.5474 24.3031 24.4162C26.4344 22.2849 27.5 19.6839 27.5 16.613C27.5 13.5422 26.4344 10.9412 24.3031 8.80991C22.1719 6.67866 19.5708 5.61304 16.5 5.61304C13.4292 5.61304 10.8281 6.67866 8.69688 8.80991C6.56563 10.9412 5.5 13.5422 5.5 16.613C5.5 19.6839 6.56563 22.2849 8.69688 24.4162C10.8281 26.5474 13.4292 27.613 16.5 27.613Z" fill="white"/>
</g>
</svg>
