<svg width="30" height="31" viewBox="0 0 30 31" fill="none" xmlns="http://www.w3.org/2000/svg">
<g clip-path="url(#clip0_86_1575)">
<path d="M15 30.113C17.0696 30.113 18.7483 28.4343 18.7483 26.363H11.2518C11.2518 28.4343 12.9305 30.113 15 30.113ZM27.6206 21.341C26.4885 20.1246 24.3704 18.2947 24.3704 12.3005C24.3704 7.7478 21.1782 4.10327 16.8739 3.20913V1.98804C16.8739 0.952686 16.0348 0.113037 15 0.113037C13.9653 0.113037 13.1262 0.952686 13.1262 1.98804V3.20913C8.82192 4.10327 5.62973 7.7478 5.62973 12.3005C5.62973 18.2947 3.51156 20.1246 2.37953 21.341C2.02797 21.7189 1.87211 22.1707 1.87504 22.613C1.88149 23.574 2.63559 24.488 3.7559 24.488H26.2442C27.3645 24.488 28.1192 23.574 28.125 22.613C28.128 22.1707 27.9721 21.7183 27.6206 21.341Z" fill="white"/>
</g>
<defs>
<clipPath id="clip0_86_1575">
<rect width="30" height="30" fill="white" transform="translate(0 0.113037)"/>
</clipPath>
</defs>
</svg>
