<svg width="14" height="13" viewBox="0 0 14 13" fill="none" xmlns="http://www.w3.org/2000/svg">
<g clip-path="url(#clip0_1_350)">
<path d="M1.73535 11.7812C1.73535 12.4541 2.28125 13 2.9541 13H11.8916C12.5645 13 13.1104 12.4541 13.1104 11.7812V4.875H1.73535V11.7812ZM9.86035 6.80469C9.86035 6.63711 9.99746 6.5 10.165 6.5H11.1807C11.3482 6.5 11.4854 6.63711 11.4854 6.80469V7.82031C11.4854 7.98789 11.3482 8.125 11.1807 8.125H10.165C9.99746 8.125 9.86035 7.98789 9.86035 7.82031V6.80469ZM9.86035 10.0547C9.86035 9.88711 9.99746 9.75 10.165 9.75H11.1807C11.3482 9.75 11.4854 9.88711 11.4854 10.0547V11.0703C11.4854 11.2379 11.3482 11.375 11.1807 11.375H10.165C9.99746 11.375 9.86035 11.2379 9.86035 11.0703V10.0547ZM6.61035 6.80469C6.61035 6.63711 6.74746 6.5 6.91504 6.5H7.93066C8.09824 6.5 8.23535 6.63711 8.23535 6.80469V7.82031C8.23535 7.98789 8.09824 8.125 7.93066 8.125H6.91504C6.74746 8.125 6.61035 7.98789 6.61035 7.82031V6.80469ZM6.61035 10.0547C6.61035 9.88711 6.74746 9.75 6.91504 9.75H7.93066C8.09824 9.75 8.23535 9.88711 8.23535 10.0547V11.0703C8.23535 11.2379 8.09824 11.375 7.93066 11.375H6.91504C6.74746 11.375 6.61035 11.2379 6.61035 11.0703V10.0547ZM3.36035 6.80469C3.36035 6.63711 3.49746 6.5 3.66504 6.5H4.68066C4.84824 6.5 4.98535 6.63711 4.98535 6.80469V7.82031C4.98535 7.98789 4.84824 8.125 4.68066 8.125H3.66504C3.49746 8.125 3.36035 7.98789 3.36035 7.82031V6.80469ZM3.36035 10.0547C3.36035 9.88711 3.49746 9.75 3.66504 9.75H4.68066C4.84824 9.75 4.98535 9.88711 4.98535 10.0547V11.0703C4.98535 11.2379 4.84824 11.375 4.68066 11.375H3.66504C3.49746 11.375 3.36035 11.2379 3.36035 11.0703V10.0547ZM11.8916 1.625H10.6729V0.40625C10.6729 0.182812 10.49 0 10.2666 0H9.4541C9.23066 0 9.04785 0.182812 9.04785 0.40625V1.625H5.79785V0.40625C5.79785 0.182812 5.61504 0 5.3916 0H4.5791C4.35566 0 4.17285 0.182812 4.17285 0.40625V1.625H2.9541C2.28125 1.625 1.73535 2.1709 1.73535 2.84375V4.0625H13.1104V2.84375C13.1104 2.1709 12.5645 1.625 11.8916 1.625Z" fill="black"/>
</g>
<defs>
<clipPath id="clip0_1_350">
<rect width="13" height="13" fill="white" transform="translate(0.922852)"/>
</clipPath>
</defs>
</svg>
