<svg width="33" height="34" viewBox="0 0 33 34" fill="none" xmlns="http://www.w3.org/2000/svg">
<mask id="mask0_86_1585" style="mask-type:alpha" maskUnits="userSpaceOnUse" x="0" y="0" width="33" height="34">
<rect y="0.113037" width="33" height="33" fill="#D9D9D9"/>
</mask>
<g mask="url(#mask0_86_1585)">
<path d="M1.375 27.613V23.763C1.375 22.9839 1.57552 22.2677 1.97656 21.6146C2.3776 20.9615 2.91042 20.463 3.575 20.1193C4.99583 19.4089 6.43958 18.8761 7.90625 18.5208C9.37292 18.1656 10.8625 17.988 12.375 17.988C13.8875 17.988 15.3771 18.1656 16.8438 18.5208C18.3104 18.8761 19.7542 19.4089 21.175 20.1193C21.8396 20.463 22.3724 20.9615 22.7734 21.6146C23.1745 22.2677 23.375 22.9839 23.375 23.763V27.613H1.375ZM26.125 27.613V23.488C26.125 22.4797 25.8443 21.5115 25.2828 20.5833C24.7214 19.6552 23.925 18.8589 22.8938 18.1943C24.0625 18.3318 25.1625 18.5667 26.1938 18.899C27.225 19.2313 28.1875 19.638 29.0812 20.1193C29.9062 20.5776 30.5365 21.0875 30.9719 21.649C31.4073 22.2104 31.625 22.8235 31.625 23.488V27.613H26.125ZM12.375 16.613C10.8625 16.613 9.56771 16.0745 8.49063 14.9974C7.41354 13.9203 6.875 12.6255 6.875 11.113C6.875 9.60054 7.41354 8.30575 8.49063 7.22866C9.56771 6.15158 10.8625 5.61304 12.375 5.61304C13.8875 5.61304 15.1823 6.15158 16.2594 7.22866C17.3365 8.30575 17.875 9.60054 17.875 11.113C17.875 12.6255 17.3365 13.9203 16.2594 14.9974C15.1823 16.0745 13.8875 16.613 12.375 16.613ZM26.125 11.113C26.125 12.6255 25.5865 13.9203 24.5094 14.9974C23.4323 16.0745 22.1375 16.613 20.625 16.613C20.3729 16.613 20.0521 16.5844 19.6625 16.5271C19.2729 16.4698 18.9521 16.4068 18.7 16.338C19.3188 15.6047 19.7943 14.7912 20.1266 13.8974C20.4589 13.0037 20.625 12.0755 20.625 11.113C20.625 10.1505 20.4589 9.22241 20.1266 8.32866C19.7943 7.43491 19.3188 6.62137 18.7 5.88804C19.0208 5.77345 19.3417 5.69897 19.6625 5.6646C19.9833 5.63022 20.3042 5.61304 20.625 5.61304C22.1375 5.61304 23.4323 6.15158 24.5094 7.22866C25.5865 8.30575 26.125 9.60054 26.125 11.113ZM4.125 24.863H20.625V23.763C20.625 23.511 20.562 23.2818 20.4359 23.0755C20.3099 22.8693 20.1437 22.7089 19.9375 22.5943C18.7 21.9755 17.451 21.5115 16.1906 21.2021C14.9302 20.8927 13.6583 20.738 12.375 20.738C11.0917 20.738 9.81979 20.8927 8.55937 21.2021C7.29896 21.5115 6.05 21.9755 4.8125 22.5943C4.60625 22.7089 4.4401 22.8693 4.31406 23.0755C4.18802 23.2818 4.125 23.511 4.125 23.763V24.863ZM12.375 13.863C13.1313 13.863 13.7786 13.5938 14.3172 13.0552C14.8557 12.5167 15.125 11.8693 15.125 11.113C15.125 10.3568 14.8557 9.70939 14.3172 9.17085C13.7786 8.63231 13.1313 8.36304 12.375 8.36304C11.6187 8.36304 10.9714 8.63231 10.4328 9.17085C9.89427 9.70939 9.625 10.3568 9.625 11.113C9.625 11.8693 9.89427 12.5167 10.4328 13.0552C10.9714 13.5938 11.6187 13.863 12.375 13.863Z" fill="#fff"/>
</g>
</svg>
