<svg width="34" height="30" viewBox="0 0 34 30" fill="none" xmlns="http://www.w3.org/2000/svg">
<g clip-path="url(#clip0_1_935)">
<path d="M30.029 26.25H3.75741C2.08323 26.25 0.726074 24.9908 0.726074 23.4375V6.5625C0.726074 5.00918 2.08323 3.75 3.75741 3.75H30.029C31.7032 3.75 33.0604 5.00918 33.0604 6.5625V23.4375C33.0604 24.9908 31.7032 26.25 30.029 26.25ZM7.7992 7.03125C5.84601 7.03125 4.26264 8.50031 4.26264 10.3125C4.26264 12.1247 5.84601 13.5938 7.7992 13.5938C9.75239 13.5938 11.3358 12.1247 11.3358 10.3125C11.3358 8.50031 9.75239 7.03125 7.7992 7.03125ZM4.76786 22.5H29.0186V15.9375L23.4918 10.8097C23.1958 10.5351 22.716 10.5351 22.42 10.8097L13.8619 18.75L10.3559 15.4972C10.06 15.2226 9.58018 15.2226 9.28418 15.4972L4.76786 19.6875V22.5Z" fill="black"/>
</g>
<defs>
<clipPath id="clip0_1_935">
<rect width="32.3343" height="30" fill="white" transform="translate(0.726074)"/>
</clipPath>
</defs>
</svg>
