<svg width="20" height="21" viewBox="0 0 20 21" fill="none" xmlns="http://www.w3.org/2000/svg">
<g clip-path="url(#clip0_28_9753)">
<path d="M10.3564 7.73633C7.87207 7.73633 5.86816 9.74023 5.86816 12.2246C5.86816 14.709 7.87207 16.7129 10.3564 16.7129C12.8408 16.7129 14.8447 14.709 14.8447 12.2246C14.8447 9.74023 12.8408 7.73633 10.3564 7.73633ZM10.3564 15.1426C8.75098 15.1426 7.43848 13.834 7.43848 12.2246C7.43848 10.6152 8.74707 9.30664 10.3564 9.30664C11.9658 9.30664 13.2744 10.6152 13.2744 12.2246C13.2744 13.834 11.9619 15.1426 10.3564 15.1426ZM16.0752 7.55273C16.0752 8.13477 15.6064 8.59961 15.0283 8.59961C14.4463 8.59961 13.9814 8.13086 13.9814 7.55273C13.9814 6.97461 14.4502 6.50586 15.0283 6.50586C15.6064 6.50586 16.0752 6.97461 16.0752 7.55273ZM19.0479 8.61523C18.9814 7.21289 18.6611 5.9707 17.6338 4.94727C16.6104 3.92383 15.3682 3.60352 13.9658 3.5332C12.5205 3.45117 8.18848 3.45117 6.74316 3.5332C5.34473 3.59961 4.10254 3.91992 3.0752 4.94336C2.04785 5.9668 1.73145 7.20898 1.66113 8.61133C1.5791 10.0566 1.5791 14.3887 1.66113 15.834C1.72754 17.2363 2.04785 18.4785 3.0752 19.502C4.10254 20.5254 5.34082 20.8457 6.74316 20.916C8.18848 20.998 12.5205 20.998 13.9658 20.916C15.3682 20.8496 16.6104 20.5293 17.6338 19.502C18.6572 18.4785 18.9775 17.2363 19.0479 15.834C19.1299 14.3887 19.1299 10.0605 19.0479 8.61523ZM17.1807 17.3848C16.876 18.1504 16.2861 18.7402 15.5166 19.0488C14.3643 19.5059 11.6299 19.4004 10.3564 19.4004C9.08301 19.4004 6.34473 19.502 5.19629 19.0488C4.43066 18.7441 3.84082 18.1543 3.53223 17.3848C3.0752 16.2324 3.18066 13.498 3.18066 12.2246C3.18066 10.9512 3.0791 8.21289 3.53223 7.06445C3.83691 6.29883 4.42676 5.70898 5.19629 5.40039C6.34863 4.94336 9.08301 5.04883 10.3564 5.04883C11.6299 5.04883 14.3682 4.94727 15.5166 5.40039C16.2822 5.70508 16.8721 6.29492 17.1807 7.06445C17.6377 8.2168 17.5322 10.9512 17.5322 12.2246C17.5322 13.498 17.6377 16.2363 17.1807 17.3848Z" fill="white"/>
</g>
<defs>
<clipPath id="clip0_28_9753">
<rect width="20" height="20" fill="white" transform="translate(0 0.871704)"/>
</clipPath>
</defs>
</svg>
