<svg width="33" height="34" viewBox="0 0 33 34" fill="none" xmlns="http://www.w3.org/2000/svg">
<mask id="mask0_86_1592" style="mask-type:alpha" maskUnits="userSpaceOnUse" x="0" y="0" width="33" height="34">
<rect y="0.113037" width="33" height="33" fill="#D9D9D9"/>
</mask>
<g mask="url(#mask0_86_1592)">
<path d="M8.25 30.363C7.49375 30.363 6.84635 30.0938 6.30781 29.5552C5.76927 29.0167 5.5 28.3693 5.5 27.613V13.863C5.5 13.1068 5.76927 12.4594 6.30781 11.9208C6.84635 11.3823 7.49375 11.113 8.25 11.113H9.625V8.36304C9.625 6.46095 10.2953 4.8396 11.6359 3.49897C12.9766 2.15835 14.5979 1.48804 16.5 1.48804C18.4021 1.48804 20.0234 2.15835 21.3641 3.49897C22.7047 4.8396 23.375 6.46095 23.375 8.36304V11.113H24.75C25.5063 11.113 26.1536 11.3823 26.6922 11.9208C27.2307 12.4594 27.5 13.1068 27.5 13.863V27.613C27.5 28.3693 27.2307 29.0167 26.6922 29.5552C26.1536 30.0938 25.5063 30.363 24.75 30.363H8.25ZM8.25 27.613H24.75V13.863H8.25V27.613ZM16.5 23.488C17.2563 23.488 17.9036 23.2188 18.4422 22.6802C18.9807 22.1417 19.25 21.4943 19.25 20.738C19.25 19.9818 18.9807 19.3344 18.4422 18.7959C17.9036 18.2573 17.2563 17.988 16.5 17.988C15.7437 17.988 15.0964 18.2573 14.5578 18.7959C14.0193 19.3344 13.75 19.9818 13.75 20.738C13.75 21.4943 14.0193 22.1417 14.5578 22.6802C15.0964 23.2188 15.7437 23.488 16.5 23.488ZM12.375 11.113H20.625V8.36304C20.625 7.2172 20.224 6.24325 19.4219 5.44116C18.6198 4.63908 17.6458 4.23804 16.5 4.23804C15.3542 4.23804 14.3802 4.63908 13.5781 5.44116C12.776 6.24325 12.375 7.2172 12.375 8.36304V11.113Z" fill="#1C1B1F"/>
</g>
</svg>
