<svg width="33" height="34" viewBox="0 0 33 34" fill="none" xmlns="http://www.w3.org/2000/svg">
<mask id="mask0_86_1597" style="mask-type:alpha" maskUnits="userSpaceOnUse" x="0" y="0" width="33" height="34">
<rect y="0.113037" width="33" height="33" fill="#D9D9D9"/>
</mask>
<g mask="url(#mask0_86_1597)">
<path d="M6.875 28.988C6.11875 28.988 5.47135 28.7188 4.93281 28.1802C4.39427 27.6417 4.125 26.9943 4.125 26.238V6.98804C4.125 6.23179 4.39427 5.58439 4.93281 5.04585C5.47135 4.50731 6.11875 4.23804 6.875 4.23804H16.5V6.98804H6.875V26.238H16.5V28.988H6.875ZM22 23.488L20.1094 21.4943L23.6156 17.988H12.375V15.238H23.6156L20.1094 11.7318L22 9.73804L28.875 16.613L22 23.488Z" fill="#1C1B1F"/>
</g>
</svg>
