<svg width="19" height="19" viewBox="0 0 19 19" fill="none" xmlns="http://www.w3.org/2000/svg">
<g clip-path="url(#clip0_29_9790)">
<path d="M18.3438 13.2197L14.4063 11.5322C14.2381 11.4605 14.0511 11.4454 13.8736 11.4892C13.6961 11.5329 13.5376 11.6331 13.4219 11.7748L11.6782 13.9052C8.94151 12.6149 6.73913 10.4126 5.44883 7.67591L7.5793 5.93216C7.72121 5.81674 7.82166 5.65822 7.86543 5.4806C7.9092 5.30298 7.89391 5.11594 7.82188 4.94779L6.13438 1.01029C6.05531 0.829024 5.91548 0.681029 5.73899 0.591821C5.5625 0.502614 5.36041 0.477784 5.16758 0.521615L1.51133 1.36536C1.32541 1.4083 1.15954 1.51298 1.04077 1.66232C0.922013 1.81167 0.857379 1.99686 0.857422 2.18767C0.857422 11.2052 8.16641 18.5002 17.1699 18.5002C17.3608 18.5003 17.5461 18.4357 17.6955 18.3169C17.8449 18.1982 17.9496 18.0322 17.9926 17.8463L18.8363 14.19C18.8799 13.9962 18.8545 13.7933 18.7646 13.6162C18.6747 13.4391 18.5259 13.2989 18.3438 13.2197Z" fill="#EE1D23"/>
</g>
<defs>
<clipPath id="clip0_29_9790">
<rect width="18" height="18" fill="white" transform="translate(0.857422 0.5)"/>
</clipPath>
</defs>
</svg>
