<svg width="8" height="9" viewBox="0 0 8 9" fill="none" xmlns="http://www.w3.org/2000/svg">
<path d="M0 7.57691C0 8.00964 0.383929 8.36073 0.857143 8.36073H7.14286C7.61607 8.36073 8 8.00964 8 7.57691V3.13527H0V7.57691ZM5.71429 4.37632C5.71429 4.26854 5.81071 4.18036 5.92857 4.18036H6.64286C6.76071 4.18036 6.85714 4.26854 6.85714 4.37632V5.0295C6.85714 5.13727 6.76071 5.22545 6.64286 5.22545H5.92857C5.81071 5.22545 5.71429 5.13727 5.71429 5.0295V4.37632ZM5.71429 6.4665C5.71429 6.35872 5.81071 6.27054 5.92857 6.27054H6.64286C6.76071 6.27054 6.85714 6.35872 6.85714 6.4665V7.11968C6.85714 7.22746 6.76071 7.31563 6.64286 7.31563H5.92857C5.81071 7.31563 5.71429 7.22746 5.71429 7.11968V6.4665ZM3.42857 4.37632C3.42857 4.26854 3.525 4.18036 3.64286 4.18036H4.35714C4.475 4.18036 4.57143 4.26854 4.57143 4.37632V5.0295C4.57143 5.13727 4.475 5.22545 4.35714 5.22545H3.64286C3.525 5.22545 3.42857 5.13727 3.42857 5.0295V4.37632ZM3.42857 6.4665C3.42857 6.35872 3.525 6.27054 3.64286 6.27054H4.35714C4.475 6.27054 4.57143 6.35872 4.57143 6.4665V7.11968C4.57143 7.22746 4.475 7.31563 4.35714 7.31563H3.64286C3.525 7.31563 3.42857 7.22746 3.42857 7.11968V6.4665ZM1.14286 4.37632C1.14286 4.26854 1.23929 4.18036 1.35714 4.18036H2.07143C2.18929 4.18036 2.28571 4.26854 2.28571 4.37632V5.0295C2.28571 5.13727 2.18929 5.22545 2.07143 5.22545H1.35714C1.23929 5.22545 1.14286 5.13727 1.14286 5.0295V4.37632ZM1.14286 6.4665C1.14286 6.35872 1.23929 6.27054 1.35714 6.27054H2.07143C2.18929 6.27054 2.28571 6.35872 2.28571 6.4665V7.11968C2.28571 7.22746 2.18929 7.31563 2.07143 7.31563H1.35714C1.23929 7.31563 1.14286 7.22746 1.14286 7.11968V6.4665ZM7.14286 1.04509H6.28571V0.261273C6.28571 0.117573 6.15714 0 6 0H5.42857C5.27143 0 5.14286 0.117573 5.14286 0.261273V1.04509H2.85714V0.261273C2.85714 0.117573 2.72857 0 2.57143 0H2C1.84286 0 1.71429 0.117573 1.71429 0.261273V1.04509H0.857143C0.383929 1.04509 0 1.39618 0 1.82891V2.61273H8V1.82891C8 1.39618 7.61607 1.04509 7.14286 1.04509Z" fill="black"/>
</svg>
