<svg width="23" height="24" viewBox="0 0 23 24" fill="none" xmlns="http://www.w3.org/2000/svg">
<path d="M18.5482 5.23362C16.666 3.3469 14.1594 2.3092 11.4955 2.3092C5.99707 2.3092 1.52285 6.78342 1.52285 12.2819C1.52285 14.0383 1.98105 15.7543 2.85254 17.2682L1.4375 22.4342L6.7248 21.0461C8.18027 21.8412 9.81992 22.259 11.491 22.259H11.4955C16.9895 22.259 21.5625 17.7848 21.5625 12.2864C21.5625 9.62249 20.4305 7.12034 18.5482 5.23362ZM11.4955 20.5789C10.0041 20.5789 8.54414 20.1791 7.27285 19.4244L6.97187 19.2448L3.83633 20.0668L4.67188 17.0076L4.47422 16.6932C3.64316 15.3725 3.20742 13.8496 3.20742 12.2819C3.20742 7.71331 6.92695 3.99377 11.5 3.99377C13.7146 3.99377 15.7945 4.85627 17.3578 6.42405C18.9211 7.99182 19.8824 10.0717 19.8779 12.2864C19.8779 16.8594 16.0641 20.5789 11.4955 20.5789ZM16.0416 14.3707C15.7945 14.2449 14.5682 13.643 14.3391 13.5621C14.11 13.4768 13.9438 13.4364 13.7775 13.6879C13.6113 13.9395 13.1352 14.4965 12.9869 14.6672C12.8432 14.8334 12.6949 14.8559 12.4479 14.7301C10.9834 13.9979 10.0221 13.4229 9.05625 11.7653C8.8002 11.325 9.3123 11.3565 9.78848 10.4041C9.86934 10.2379 9.82891 10.0942 9.76602 9.96838C9.70312 9.8426 9.20449 8.61624 8.99785 8.1176C8.7957 7.63245 8.58906 7.69983 8.43633 7.69085C8.29258 7.68186 8.12637 7.68186 7.96016 7.68186C7.79395 7.68186 7.52441 7.74475 7.29531 7.99182C7.06621 8.24338 6.42383 8.84534 6.42383 10.0717C6.42383 11.2981 7.31777 12.484 7.43906 12.6502C7.56484 12.8164 9.19551 15.3321 11.6977 16.4147C13.2789 17.0975 13.8988 17.1559 14.6895 17.0391C15.1701 16.9672 16.1629 16.4371 16.3695 15.8531C16.5762 15.2692 16.5762 14.7705 16.5133 14.6672C16.4549 14.5549 16.2887 14.492 16.0416 14.3707Z" fill="white"/>
</svg>
